<mxfile host="app.diagrams.net" agent="Mozilla/5.0 (Windows NT 10.0; Win64; x64) AppleWebKit/537.36 (KHTML, like Gecko) Chrome/131.0.0.0 Safari/537.36" version="25.0.3" pages="2">
  <diagram name="ex1" id="NL4j4V3pzvLQrBeJVXHP">
    <mxGraphModel dx="1094" dy="757" grid="1" gridSize="10" guides="1" tooltips="1" connect="1" arrows="1" fold="1" page="1" pageScale="1" pageWidth="827" pageHeight="1169" math="0" shadow="0">
      <root>
        <mxCell id="0" />
        <mxCell id="1" parent="0" />
        <mxCell id="aFqaq0fVlDfXSGXktS_I-23" value="Aluno" style="whiteSpace=wrap;html=1;align=center;fontFamily=Helvetica;fontSize=11;fontColor=default;labelBackgroundColor=default;" parent="1" vertex="1">
          <mxGeometry x="80" y="160" width="100" height="40" as="geometry" />
        </mxCell>
        <mxCell id="aFqaq0fVlDfXSGXktS_I-25" value="" style="edgeStyle=orthogonalEdgeStyle;shape=connector;rounded=0;orthogonalLoop=1;jettySize=auto;html=1;strokeColor=default;align=center;verticalAlign=middle;fontFamily=Helvetica;fontSize=11;fontColor=default;labelBackgroundColor=default;endArrow=none;endFill=0;" parent="1" source="aFqaq0fVlDfXSGXktS_I-24" target="aFqaq0fVlDfXSGXktS_I-23" edge="1">
          <mxGeometry relative="1" as="geometry" />
        </mxCell>
        <mxCell id="aFqaq0fVlDfXSGXktS_I-24" value="Esta" style="shape=rhombus;perimeter=rhombusPerimeter;whiteSpace=wrap;html=1;align=center;fontFamily=Helvetica;fontSize=11;fontColor=default;labelBackgroundColor=default;" parent="1" vertex="1">
          <mxGeometry x="220" y="150" width="120" height="60" as="geometry" />
        </mxCell>
        <mxCell id="aFqaq0fVlDfXSGXktS_I-27" value="" style="edgeStyle=orthogonalEdgeStyle;shape=connector;rounded=0;orthogonalLoop=1;jettySize=auto;html=1;strokeColor=default;align=center;verticalAlign=middle;fontFamily=Helvetica;fontSize=11;fontColor=default;labelBackgroundColor=default;endArrow=none;endFill=0;" parent="1" source="aFqaq0fVlDfXSGXktS_I-26" target="aFqaq0fVlDfXSGXktS_I-24" edge="1">
          <mxGeometry relative="1" as="geometry" />
        </mxCell>
        <mxCell id="aFqaq0fVlDfXSGXktS_I-26" value="turma" style="whiteSpace=wrap;html=1;align=center;fontFamily=Helvetica;fontSize=11;fontColor=default;labelBackgroundColor=default;" parent="1" vertex="1">
          <mxGeometry x="370" y="160" width="100" height="40" as="geometry" />
        </mxCell>
        <mxCell id="aFqaq0fVlDfXSGXktS_I-31" value="" style="edgeStyle=orthogonalEdgeStyle;shape=connector;rounded=0;orthogonalLoop=1;jettySize=auto;html=1;strokeColor=default;align=center;verticalAlign=middle;fontFamily=Helvetica;fontSize=11;fontColor=default;labelBackgroundColor=default;endArrow=none;endFill=0;" parent="1" source="aFqaq0fVlDfXSGXktS_I-28" target="aFqaq0fVlDfXSGXktS_I-26" edge="1">
          <mxGeometry relative="1" as="geometry" />
        </mxCell>
        <mxCell id="aFqaq0fVlDfXSGXktS_I-28" value="Inclui" style="shape=rhombus;perimeter=rhombusPerimeter;whiteSpace=wrap;html=1;align=center;fontFamily=Helvetica;fontSize=11;fontColor=default;labelBackgroundColor=default;" parent="1" vertex="1">
          <mxGeometry x="500" y="150" width="120" height="60" as="geometry" />
        </mxCell>
        <mxCell id="aFqaq0fVlDfXSGXktS_I-30" value="" style="edgeStyle=orthogonalEdgeStyle;shape=connector;rounded=0;orthogonalLoop=1;jettySize=auto;html=1;strokeColor=default;align=center;verticalAlign=middle;fontFamily=Helvetica;fontSize=11;fontColor=default;labelBackgroundColor=default;endArrow=none;endFill=0;" parent="1" source="aFqaq0fVlDfXSGXktS_I-29" target="aFqaq0fVlDfXSGXktS_I-28" edge="1">
          <mxGeometry relative="1" as="geometry" />
        </mxCell>
        <mxCell id="aFqaq0fVlDfXSGXktS_I-29" value="Disciplina" style="whiteSpace=wrap;html=1;align=center;fontFamily=Helvetica;fontSize=11;fontColor=default;labelBackgroundColor=default;" parent="1" vertex="1">
          <mxGeometry x="670" y="160" width="100" height="40" as="geometry" />
        </mxCell>
        <mxCell id="aFqaq0fVlDfXSGXktS_I-33" value="Paciente" style="whiteSpace=wrap;html=1;align=center;fontFamily=Helvetica;fontSize=11;fontColor=default;labelBackgroundColor=default;" parent="1" vertex="1">
          <mxGeometry x="80" y="280" width="100" height="40" as="geometry" />
        </mxCell>
        <mxCell id="aFqaq0fVlDfXSGXktS_I-34" value="" style="edgeStyle=orthogonalEdgeStyle;shape=connector;rounded=0;orthogonalLoop=1;jettySize=auto;html=1;strokeColor=default;align=center;verticalAlign=middle;fontFamily=Helvetica;fontSize=11;fontColor=default;labelBackgroundColor=default;endArrow=none;endFill=0;" parent="1" source="aFqaq0fVlDfXSGXktS_I-35" target="aFqaq0fVlDfXSGXktS_I-33" edge="1">
          <mxGeometry relative="1" as="geometry" />
        </mxCell>
        <mxCell id="aFqaq0fVlDfXSGXktS_I-35" value="Tratado" style="shape=rhombus;perimeter=rhombusPerimeter;whiteSpace=wrap;html=1;align=center;fontFamily=Helvetica;fontSize=11;fontColor=default;labelBackgroundColor=default;" parent="1" vertex="1">
          <mxGeometry x="220" y="270" width="120" height="60" as="geometry" />
        </mxCell>
        <mxCell id="aFqaq0fVlDfXSGXktS_I-36" value="" style="edgeStyle=orthogonalEdgeStyle;shape=connector;rounded=0;orthogonalLoop=1;jettySize=auto;html=1;strokeColor=default;align=center;verticalAlign=middle;fontFamily=Helvetica;fontSize=11;fontColor=default;labelBackgroundColor=default;endArrow=none;endFill=0;" parent="1" source="aFqaq0fVlDfXSGXktS_I-37" target="aFqaq0fVlDfXSGXktS_I-35" edge="1">
          <mxGeometry relative="1" as="geometry" />
        </mxCell>
        <mxCell id="aFqaq0fVlDfXSGXktS_I-37" value="Medico" style="whiteSpace=wrap;html=1;align=center;fontFamily=Helvetica;fontSize=11;fontColor=default;labelBackgroundColor=default;" parent="1" vertex="1">
          <mxGeometry x="370" y="280" width="100" height="40" as="geometry" />
        </mxCell>
        <mxCell id="aFqaq0fVlDfXSGXktS_I-38" value="" style="edgeStyle=orthogonalEdgeStyle;shape=connector;rounded=0;orthogonalLoop=1;jettySize=auto;html=1;strokeColor=default;align=center;verticalAlign=middle;fontFamily=Helvetica;fontSize=11;fontColor=default;labelBackgroundColor=default;endArrow=none;endFill=0;" parent="1" source="aFqaq0fVlDfXSGXktS_I-39" target="aFqaq0fVlDfXSGXktS_I-37" edge="1">
          <mxGeometry relative="1" as="geometry" />
        </mxCell>
        <mxCell id="aFqaq0fVlDfXSGXktS_I-39" value="Pertence" style="shape=rhombus;perimeter=rhombusPerimeter;whiteSpace=wrap;html=1;align=center;fontFamily=Helvetica;fontSize=11;fontColor=default;labelBackgroundColor=default;" parent="1" vertex="1">
          <mxGeometry x="500" y="270" width="120" height="60" as="geometry" />
        </mxCell>
        <mxCell id="aFqaq0fVlDfXSGXktS_I-40" value="" style="edgeStyle=orthogonalEdgeStyle;shape=connector;rounded=0;orthogonalLoop=1;jettySize=auto;html=1;strokeColor=default;align=center;verticalAlign=middle;fontFamily=Helvetica;fontSize=11;fontColor=default;labelBackgroundColor=default;endArrow=none;endFill=0;" parent="1" source="aFqaq0fVlDfXSGXktS_I-41" target="aFqaq0fVlDfXSGXktS_I-39" edge="1">
          <mxGeometry relative="1" as="geometry" />
        </mxCell>
        <mxCell id="aFqaq0fVlDfXSGXktS_I-41" value="Departamento" style="whiteSpace=wrap;html=1;align=center;fontFamily=Helvetica;fontSize=11;fontColor=default;labelBackgroundColor=default;" parent="1" vertex="1">
          <mxGeometry x="670" y="280" width="100" height="40" as="geometry" />
        </mxCell>
        <mxCell id="aFqaq0fVlDfXSGXktS_I-42" value="Cliente" style="whiteSpace=wrap;html=1;align=center;fontFamily=Helvetica;fontSize=11;fontColor=default;labelBackgroundColor=default;" parent="1" vertex="1">
          <mxGeometry x="80" y="400" width="100" height="40" as="geometry" />
        </mxCell>
        <mxCell id="aFqaq0fVlDfXSGXktS_I-43" value="" style="edgeStyle=orthogonalEdgeStyle;shape=connector;rounded=0;orthogonalLoop=1;jettySize=auto;html=1;strokeColor=default;align=center;verticalAlign=middle;fontFamily=Helvetica;fontSize=11;fontColor=default;labelBackgroundColor=default;endArrow=none;endFill=0;" parent="1" source="aFqaq0fVlDfXSGXktS_I-44" target="aFqaq0fVlDfXSGXktS_I-42" edge="1">
          <mxGeometry relative="1" as="geometry" />
        </mxCell>
        <mxCell id="aFqaq0fVlDfXSGXktS_I-44" value="Faz" style="shape=rhombus;perimeter=rhombusPerimeter;whiteSpace=wrap;html=1;align=center;fontFamily=Helvetica;fontSize=11;fontColor=default;labelBackgroundColor=default;" parent="1" vertex="1">
          <mxGeometry x="220" y="390" width="120" height="60" as="geometry" />
        </mxCell>
        <mxCell id="aFqaq0fVlDfXSGXktS_I-45" value="" style="edgeStyle=orthogonalEdgeStyle;shape=connector;rounded=0;orthogonalLoop=1;jettySize=auto;html=1;strokeColor=default;align=center;verticalAlign=middle;fontFamily=Helvetica;fontSize=11;fontColor=default;labelBackgroundColor=default;endArrow=none;endFill=0;" parent="1" source="aFqaq0fVlDfXSGXktS_I-46" target="aFqaq0fVlDfXSGXktS_I-44" edge="1">
          <mxGeometry relative="1" as="geometry" />
        </mxCell>
        <mxCell id="aFqaq0fVlDfXSGXktS_I-46" value="Encomenda" style="whiteSpace=wrap;html=1;align=center;fontFamily=Helvetica;fontSize=11;fontColor=default;labelBackgroundColor=default;" parent="1" vertex="1">
          <mxGeometry x="370" y="400" width="100" height="40" as="geometry" />
        </mxCell>
        <mxCell id="aFqaq0fVlDfXSGXktS_I-47" value="" style="edgeStyle=orthogonalEdgeStyle;shape=connector;rounded=0;orthogonalLoop=1;jettySize=auto;html=1;strokeColor=default;align=center;verticalAlign=middle;fontFamily=Helvetica;fontSize=11;fontColor=default;labelBackgroundColor=default;endArrow=none;endFill=0;" parent="1" source="aFqaq0fVlDfXSGXktS_I-48" target="aFqaq0fVlDfXSGXktS_I-46" edge="1">
          <mxGeometry relative="1" as="geometry" />
        </mxCell>
        <mxCell id="aFqaq0fVlDfXSGXktS_I-48" value="Inclui" style="shape=rhombus;perimeter=rhombusPerimeter;whiteSpace=wrap;html=1;align=center;fontFamily=Helvetica;fontSize=11;fontColor=default;labelBackgroundColor=default;" parent="1" vertex="1">
          <mxGeometry x="500" y="390" width="120" height="60" as="geometry" />
        </mxCell>
        <mxCell id="aFqaq0fVlDfXSGXktS_I-49" value="" style="edgeStyle=orthogonalEdgeStyle;shape=connector;rounded=0;orthogonalLoop=1;jettySize=auto;html=1;strokeColor=default;align=center;verticalAlign=middle;fontFamily=Helvetica;fontSize=11;fontColor=default;labelBackgroundColor=default;endArrow=none;endFill=0;" parent="1" source="aFqaq0fVlDfXSGXktS_I-50" target="aFqaq0fVlDfXSGXktS_I-48" edge="1">
          <mxGeometry relative="1" as="geometry" />
        </mxCell>
        <mxCell id="aFqaq0fVlDfXSGXktS_I-50" value="Produto" style="whiteSpace=wrap;html=1;align=center;fontFamily=Helvetica;fontSize=11;fontColor=default;labelBackgroundColor=default;" parent="1" vertex="1">
          <mxGeometry x="670" y="400" width="100" height="40" as="geometry" />
        </mxCell>
        <mxCell id="aFqaq0fVlDfXSGXktS_I-51" value="Autor" style="whiteSpace=wrap;html=1;align=center;fontFamily=Helvetica;fontSize=11;fontColor=default;labelBackgroundColor=default;" parent="1" vertex="1">
          <mxGeometry x="80" y="50" width="100" height="40" as="geometry" />
        </mxCell>
        <mxCell id="aFqaq0fVlDfXSGXktS_I-52" value="" style="edgeStyle=orthogonalEdgeStyle;shape=connector;rounded=0;orthogonalLoop=1;jettySize=auto;html=1;strokeColor=default;align=center;verticalAlign=middle;fontFamily=Helvetica;fontSize=11;fontColor=default;labelBackgroundColor=default;endArrow=none;endFill=0;" parent="1" source="aFqaq0fVlDfXSGXktS_I-53" target="aFqaq0fVlDfXSGXktS_I-51" edge="1">
          <mxGeometry relative="1" as="geometry" />
        </mxCell>
        <mxCell id="aFqaq0fVlDfXSGXktS_I-53" value="Escreveu" style="shape=rhombus;perimeter=rhombusPerimeter;whiteSpace=wrap;html=1;align=center;fontFamily=Helvetica;fontSize=11;fontColor=default;labelBackgroundColor=default;" parent="1" vertex="1">
          <mxGeometry x="220" y="40" width="120" height="60" as="geometry" />
        </mxCell>
        <mxCell id="aFqaq0fVlDfXSGXktS_I-54" value="" style="edgeStyle=orthogonalEdgeStyle;shape=connector;rounded=0;orthogonalLoop=1;jettySize=auto;html=1;strokeColor=default;align=center;verticalAlign=middle;fontFamily=Helvetica;fontSize=11;fontColor=default;labelBackgroundColor=default;endArrow=none;endFill=0;" parent="1" source="aFqaq0fVlDfXSGXktS_I-55" target="aFqaq0fVlDfXSGXktS_I-53" edge="1">
          <mxGeometry relative="1" as="geometry" />
        </mxCell>
        <mxCell id="aFqaq0fVlDfXSGXktS_I-55" value="Livro" style="whiteSpace=wrap;html=1;align=center;fontFamily=Helvetica;fontSize=11;fontColor=default;labelBackgroundColor=default;" parent="1" vertex="1">
          <mxGeometry x="370" y="50" width="100" height="40" as="geometry" />
        </mxCell>
        <mxCell id="aFqaq0fVlDfXSGXktS_I-56" value="" style="edgeStyle=orthogonalEdgeStyle;shape=connector;rounded=0;orthogonalLoop=1;jettySize=auto;html=1;strokeColor=default;align=center;verticalAlign=middle;fontFamily=Helvetica;fontSize=11;fontColor=default;labelBackgroundColor=default;endArrow=none;endFill=0;" parent="1" source="aFqaq0fVlDfXSGXktS_I-57" target="aFqaq0fVlDfXSGXktS_I-55" edge="1">
          <mxGeometry relative="1" as="geometry" />
        </mxCell>
        <mxCell id="aFqaq0fVlDfXSGXktS_I-57" value="Pertence" style="shape=rhombus;perimeter=rhombusPerimeter;whiteSpace=wrap;html=1;align=center;fontFamily=Helvetica;fontSize=11;fontColor=default;labelBackgroundColor=default;" parent="1" vertex="1">
          <mxGeometry x="500" y="40" width="120" height="60" as="geometry" />
        </mxCell>
        <mxCell id="aFqaq0fVlDfXSGXktS_I-58" value="" style="edgeStyle=orthogonalEdgeStyle;shape=connector;rounded=0;orthogonalLoop=1;jettySize=auto;html=1;strokeColor=default;align=center;verticalAlign=middle;fontFamily=Helvetica;fontSize=11;fontColor=default;labelBackgroundColor=default;endArrow=none;endFill=0;" parent="1" source="aFqaq0fVlDfXSGXktS_I-59" target="aFqaq0fVlDfXSGXktS_I-57" edge="1">
          <mxGeometry relative="1" as="geometry" />
        </mxCell>
        <mxCell id="aFqaq0fVlDfXSGXktS_I-59" value="Editora" style="whiteSpace=wrap;html=1;align=center;fontFamily=Helvetica;fontSize=11;fontColor=default;labelBackgroundColor=default;" parent="1" vertex="1">
          <mxGeometry x="670" y="50" width="100" height="40" as="geometry" />
        </mxCell>
        <mxCell id="aFqaq0fVlDfXSGXktS_I-77" style="edgeStyle=orthogonalEdgeStyle;shape=connector;rounded=0;orthogonalLoop=1;jettySize=auto;html=1;exitX=0;exitY=1;exitDx=0;exitDy=0;entryX=0;entryY=0.5;entryDx=0;entryDy=0;strokeColor=default;align=center;verticalAlign=middle;fontFamily=Helvetica;fontSize=11;fontColor=default;labelBackgroundColor=default;endArrow=none;endFill=0;" parent="1" source="aFqaq0fVlDfXSGXktS_I-64" target="aFqaq0fVlDfXSGXktS_I-73" edge="1">
          <mxGeometry relative="1" as="geometry">
            <Array as="points">
              <mxPoint x="229" y="525" />
              <mxPoint x="229" y="675" />
            </Array>
          </mxGeometry>
        </mxCell>
        <mxCell id="aFqaq0fVlDfXSGXktS_I-64" value="Aviao" style="whiteSpace=wrap;html=1;align=center;fontFamily=Helvetica;fontSize=11;fontColor=default;labelBackgroundColor=default;" parent="1" vertex="1">
          <mxGeometry x="219" y="485" width="100" height="40" as="geometry" />
        </mxCell>
        <mxCell id="aFqaq0fVlDfXSGXktS_I-65" value="" style="edgeStyle=orthogonalEdgeStyle;shape=connector;rounded=0;orthogonalLoop=1;jettySize=auto;html=1;strokeColor=default;align=center;verticalAlign=middle;fontFamily=Helvetica;fontSize=11;fontColor=default;labelBackgroundColor=default;endArrow=none;endFill=0;" parent="1" source="aFqaq0fVlDfXSGXktS_I-66" target="aFqaq0fVlDfXSGXktS_I-64" edge="1">
          <mxGeometry relative="1" as="geometry" />
        </mxCell>
        <mxCell id="aFqaq0fVlDfXSGXktS_I-66" value="Faz" style="shape=rhombus;perimeter=rhombusPerimeter;whiteSpace=wrap;html=1;align=center;fontFamily=Helvetica;fontSize=11;fontColor=default;labelBackgroundColor=default;" parent="1" vertex="1">
          <mxGeometry x="359" y="475" width="120" height="60" as="geometry" />
        </mxCell>
        <mxCell id="aFqaq0fVlDfXSGXktS_I-67" value="" style="edgeStyle=orthogonalEdgeStyle;shape=connector;rounded=0;orthogonalLoop=1;jettySize=auto;html=1;strokeColor=default;align=center;verticalAlign=middle;fontFamily=Helvetica;fontSize=11;fontColor=default;labelBackgroundColor=default;endArrow=none;endFill=0;" parent="1" source="aFqaq0fVlDfXSGXktS_I-68" target="aFqaq0fVlDfXSGXktS_I-66" edge="1">
          <mxGeometry relative="1" as="geometry" />
        </mxCell>
        <mxCell id="aFqaq0fVlDfXSGXktS_I-80" style="edgeStyle=orthogonalEdgeStyle;shape=connector;rounded=0;orthogonalLoop=1;jettySize=auto;html=1;exitX=1;exitY=1;exitDx=0;exitDy=0;entryX=1;entryY=0.5;entryDx=0;entryDy=0;strokeColor=default;align=center;verticalAlign=middle;fontFamily=Helvetica;fontSize=11;fontColor=default;labelBackgroundColor=default;endArrow=none;endFill=0;" parent="1" source="aFqaq0fVlDfXSGXktS_I-68" target="aFqaq0fVlDfXSGXktS_I-74" edge="1">
          <mxGeometry relative="1" as="geometry">
            <Array as="points">
              <mxPoint x="599" y="525" />
              <mxPoint x="599" y="575" />
            </Array>
          </mxGeometry>
        </mxCell>
        <mxCell id="aFqaq0fVlDfXSGXktS_I-68" value="Voo" style="whiteSpace=wrap;html=1;align=center;fontFamily=Helvetica;fontSize=11;fontColor=default;labelBackgroundColor=default;" parent="1" vertex="1">
          <mxGeometry x="509" y="485" width="100" height="40" as="geometry" />
        </mxCell>
        <mxCell id="aFqaq0fVlDfXSGXktS_I-79" style="edgeStyle=orthogonalEdgeStyle;shape=connector;rounded=0;orthogonalLoop=1;jettySize=auto;html=1;exitX=0;exitY=0.5;exitDx=0;exitDy=0;entryX=0;entryY=1;entryDx=0;entryDy=0;strokeColor=default;align=center;verticalAlign=middle;fontFamily=Helvetica;fontSize=11;fontColor=default;labelBackgroundColor=default;endArrow=none;endFill=0;" parent="1" source="aFqaq0fVlDfXSGXktS_I-85" target="aFqaq0fVlDfXSGXktS_I-64" edge="1">
          <mxGeometry relative="1" as="geometry">
            <Array as="points">
              <mxPoint x="229" y="575" />
              <mxPoint x="229" y="525" />
            </Array>
          </mxGeometry>
        </mxCell>
        <mxCell id="aFqaq0fVlDfXSGXktS_I-71" value="matricula" style="ellipse;whiteSpace=wrap;html=1;align=center;fontFamily=Helvetica;fontSize=11;fontColor=default;labelBackgroundColor=default;strokeColor=none;fillColor=none;" parent="1" vertex="1">
          <mxGeometry x="249" y="555" width="100" height="40" as="geometry" />
        </mxCell>
        <mxCell id="aFqaq0fVlDfXSGXktS_I-78" style="edgeStyle=orthogonalEdgeStyle;shape=connector;rounded=0;orthogonalLoop=1;jettySize=auto;html=1;exitX=0;exitY=0.5;exitDx=0;exitDy=0;entryX=0;entryY=1;entryDx=0;entryDy=0;strokeColor=default;align=center;verticalAlign=middle;fontFamily=Helvetica;fontSize=11;fontColor=default;labelBackgroundColor=default;endArrow=none;endFill=0;" parent="1" source="aFqaq0fVlDfXSGXktS_I-72" target="aFqaq0fVlDfXSGXktS_I-64" edge="1">
          <mxGeometry relative="1" as="geometry">
            <Array as="points">
              <mxPoint x="229" y="625" />
              <mxPoint x="229" y="525" />
            </Array>
          </mxGeometry>
        </mxCell>
        <mxCell id="aFqaq0fVlDfXSGXktS_I-72" value="marca" style="ellipse;whiteSpace=wrap;html=1;align=center;fontFamily=Helvetica;fontSize=11;fontColor=default;labelBackgroundColor=default;strokeColor=none;fillColor=none;" parent="1" vertex="1">
          <mxGeometry x="249" y="605" width="100" height="40" as="geometry" />
        </mxCell>
        <mxCell id="aFqaq0fVlDfXSGXktS_I-73" value="autonomia (em horas)" style="ellipse;whiteSpace=wrap;html=1;align=center;fontFamily=Helvetica;fontSize=11;fontColor=default;labelBackgroundColor=default;strokeColor=none;fillColor=none;" parent="1" vertex="1">
          <mxGeometry x="249" y="655" width="100" height="40" as="geometry" />
        </mxCell>
        <mxCell id="aFqaq0fVlDfXSGXktS_I-74" value="N. referencia" style="ellipse;whiteSpace=wrap;html=1;align=center;fontFamily=Helvetica;fontSize=11;fontColor=default;labelBackgroundColor=default;strokeColor=none;fillColor=none;" parent="1" vertex="1">
          <mxGeometry x="469" y="555" width="100" height="40" as="geometry" />
        </mxCell>
        <mxCell id="aFqaq0fVlDfXSGXktS_I-81" style="edgeStyle=orthogonalEdgeStyle;shape=connector;rounded=0;orthogonalLoop=1;jettySize=auto;html=1;exitX=1;exitY=0.5;exitDx=0;exitDy=0;entryX=1;entryY=1;entryDx=0;entryDy=0;strokeColor=default;align=center;verticalAlign=middle;fontFamily=Helvetica;fontSize=11;fontColor=default;labelBackgroundColor=default;endArrow=none;endFill=0;" parent="1" source="aFqaq0fVlDfXSGXktS_I-75" target="aFqaq0fVlDfXSGXktS_I-68" edge="1">
          <mxGeometry relative="1" as="geometry">
            <Array as="points">
              <mxPoint x="599" y="625" />
              <mxPoint x="599" y="525" />
            </Array>
          </mxGeometry>
        </mxCell>
        <mxCell id="aFqaq0fVlDfXSGXktS_I-75" value="data" style="ellipse;whiteSpace=wrap;html=1;align=center;fontFamily=Helvetica;fontSize=11;fontColor=default;labelBackgroundColor=default;strokeColor=none;fillColor=none;" parent="1" vertex="1">
          <mxGeometry x="469" y="605" width="100" height="40" as="geometry" />
        </mxCell>
        <mxCell id="aFqaq0fVlDfXSGXktS_I-82" style="edgeStyle=orthogonalEdgeStyle;shape=connector;rounded=0;orthogonalLoop=1;jettySize=auto;html=1;exitX=1;exitY=0.5;exitDx=0;exitDy=0;entryX=1;entryY=1;entryDx=0;entryDy=0;strokeColor=default;align=center;verticalAlign=middle;fontFamily=Helvetica;fontSize=11;fontColor=default;labelBackgroundColor=default;endArrow=none;endFill=0;" parent="1" source="aFqaq0fVlDfXSGXktS_I-76" target="aFqaq0fVlDfXSGXktS_I-68" edge="1">
          <mxGeometry relative="1" as="geometry">
            <Array as="points">
              <mxPoint x="599" y="675" />
              <mxPoint x="599" y="525" />
            </Array>
          </mxGeometry>
        </mxCell>
        <mxCell id="aFqaq0fVlDfXSGXktS_I-76" value="hora" style="ellipse;whiteSpace=wrap;html=1;align=center;fontFamily=Helvetica;fontSize=11;fontColor=default;labelBackgroundColor=default;strokeColor=none;fillColor=none;" parent="1" vertex="1">
          <mxGeometry x="469" y="655" width="100" height="40" as="geometry" />
        </mxCell>
        <mxCell id="aFqaq0fVlDfXSGXktS_I-86" value="" style="ellipse;whiteSpace=wrap;html=1;aspect=fixed;fontFamily=Helvetica;fontSize=11;fontColor=default;labelBackgroundColor=default;" parent="1" vertex="1">
          <mxGeometry x="239" y="615" width="20" height="20" as="geometry" />
        </mxCell>
        <mxCell id="aFqaq0fVlDfXSGXktS_I-87" value="" style="ellipse;whiteSpace=wrap;html=1;aspect=fixed;fontFamily=Helvetica;fontSize=11;fontColor=default;labelBackgroundColor=default;" parent="1" vertex="1">
          <mxGeometry x="239" y="665" width="20" height="20" as="geometry" />
        </mxCell>
        <mxCell id="aFqaq0fVlDfXSGXktS_I-88" value="" style="ellipse;whiteSpace=wrap;html=1;aspect=fixed;fontFamily=Helvetica;fontSize=11;fontColor=default;labelBackgroundColor=default;" parent="1" vertex="1">
          <mxGeometry x="569" y="565" width="20" height="20" as="geometry" />
        </mxCell>
        <mxCell id="aFqaq0fVlDfXSGXktS_I-93" value="" style="ellipse;whiteSpace=wrap;html=1;aspect=fixed;fontFamily=Helvetica;fontSize=11;fontColor=default;labelBackgroundColor=default;" parent="1" vertex="1">
          <mxGeometry x="569" y="615" width="20" height="20" as="geometry" />
        </mxCell>
        <mxCell id="aFqaq0fVlDfXSGXktS_I-94" value="" style="ellipse;whiteSpace=wrap;html=1;aspect=fixed;fontFamily=Helvetica;fontSize=11;fontColor=default;labelBackgroundColor=default;" parent="1" vertex="1">
          <mxGeometry x="569" y="665" width="20" height="20" as="geometry" />
        </mxCell>
        <mxCell id="aFqaq0fVlDfXSGXktS_I-95" value="" style="edgeStyle=orthogonalEdgeStyle;shape=connector;rounded=0;orthogonalLoop=1;jettySize=auto;html=1;exitX=0;exitY=0.5;exitDx=0;exitDy=0;entryX=0;entryY=1;entryDx=0;entryDy=0;strokeColor=default;align=center;verticalAlign=middle;fontFamily=Helvetica;fontSize=11;fontColor=default;labelBackgroundColor=default;endArrow=none;endFill=0;" parent="1" source="aFqaq0fVlDfXSGXktS_I-71" target="aFqaq0fVlDfXSGXktS_I-85" edge="1">
          <mxGeometry relative="1" as="geometry">
            <mxPoint x="249" y="575" as="sourcePoint" />
            <mxPoint x="219" y="525" as="targetPoint" />
          </mxGeometry>
        </mxCell>
        <mxCell id="aFqaq0fVlDfXSGXktS_I-85" value="" style="ellipse;whiteSpace=wrap;html=1;aspect=fixed;fontFamily=Helvetica;fontSize=11;fontColor=default;labelBackgroundColor=default;" parent="1" vertex="1">
          <mxGeometry x="239" y="565" width="20" height="20" as="geometry" />
        </mxCell>
        <mxCell id="aFqaq0fVlDfXSGXktS_I-96" value="Medico" style="whiteSpace=wrap;html=1;align=center;fontFamily=Helvetica;fontSize=11;fontColor=default;labelBackgroundColor=default;" parent="1" vertex="1">
          <mxGeometry x="100" y="870" width="100" height="40" as="geometry" />
        </mxCell>
        <mxCell id="aFqaq0fVlDfXSGXktS_I-97" value="" style="shape=connector;rounded=0;orthogonalLoop=1;jettySize=auto;html=1;strokeColor=default;align=center;verticalAlign=middle;fontFamily=Helvetica;fontSize=11;fontColor=default;labelBackgroundColor=default;endArrow=none;endFill=0;" parent="1" source="aFqaq0fVlDfXSGXktS_I-98" target="aFqaq0fVlDfXSGXktS_I-96" edge="1">
          <mxGeometry relative="1" as="geometry" />
        </mxCell>
        <mxCell id="aFqaq0fVlDfXSGXktS_I-98" value="Tem" style="shape=rhombus;perimeter=rhombusPerimeter;whiteSpace=wrap;html=1;align=center;fontFamily=Helvetica;fontSize=11;fontColor=default;labelBackgroundColor=default;" parent="1" vertex="1">
          <mxGeometry x="220" y="910" width="120" height="60" as="geometry" />
        </mxCell>
        <mxCell id="aFqaq0fVlDfXSGXktS_I-99" value="" style="shape=connector;rounded=0;orthogonalLoop=1;jettySize=auto;html=1;strokeColor=default;align=center;verticalAlign=middle;fontFamily=Helvetica;fontSize=11;fontColor=default;labelBackgroundColor=default;endArrow=none;endFill=0;entryX=1;entryY=1;entryDx=0;entryDy=0;" parent="1" source="aFqaq0fVlDfXSGXktS_I-100" target="aFqaq0fVlDfXSGXktS_I-98" edge="1">
          <mxGeometry relative="1" as="geometry">
            <mxPoint x="317.5" y="993.16" as="targetPoint" />
          </mxGeometry>
        </mxCell>
        <mxCell id="aFqaq0fVlDfXSGXktS_I-100" value="Consulta" style="whiteSpace=wrap;html=1;align=center;fontFamily=Helvetica;fontSize=11;fontColor=default;labelBackgroundColor=default;" parent="1" vertex="1">
          <mxGeometry x="365.5" y="994.16" width="100" height="40" as="geometry" />
        </mxCell>
        <mxCell id="aFqaq0fVlDfXSGXktS_I-101" value="" style="shape=connector;rounded=0;orthogonalLoop=1;jettySize=auto;html=1;strokeColor=default;align=center;verticalAlign=middle;fontFamily=Helvetica;fontSize=11;fontColor=default;labelBackgroundColor=default;endArrow=none;endFill=0;exitX=0;exitY=1;exitDx=0;exitDy=0;" parent="1" source="aFqaq0fVlDfXSGXktS_I-102" target="aFqaq0fVlDfXSGXktS_I-100" edge="1">
          <mxGeometry relative="1" as="geometry">
            <mxPoint x="536.1867469879517" y="980.0033734939758" as="sourcePoint" />
          </mxGeometry>
        </mxCell>
        <mxCell id="aFqaq0fVlDfXSGXktS_I-102" value="Para" style="shape=rhombus;perimeter=rhombusPerimeter;whiteSpace=wrap;html=1;align=center;fontFamily=Helvetica;fontSize=11;fontColor=default;labelBackgroundColor=default;" parent="1" vertex="1">
          <mxGeometry x="519" y="895" width="120" height="60" as="geometry" />
        </mxCell>
        <mxCell id="aFqaq0fVlDfXSGXktS_I-103" value="" style="shape=connector;rounded=0;orthogonalLoop=1;jettySize=auto;html=1;strokeColor=default;align=center;verticalAlign=middle;fontFamily=Helvetica;fontSize=11;fontColor=default;labelBackgroundColor=default;endArrow=none;endFill=0;" parent="1" source="aFqaq0fVlDfXSGXktS_I-104" target="aFqaq0fVlDfXSGXktS_I-102" edge="1">
          <mxGeometry relative="1" as="geometry" />
        </mxCell>
        <mxCell id="aFqaq0fVlDfXSGXktS_I-104" value="Paciente" style="whiteSpace=wrap;html=1;align=center;fontFamily=Helvetica;fontSize=11;fontColor=default;labelBackgroundColor=default;" parent="1" vertex="1">
          <mxGeometry x="660" y="845" width="100" height="40" as="geometry" />
        </mxCell>
        <mxCell id="aFqaq0fVlDfXSGXktS_I-110" value="Data" style="ellipse;whiteSpace=wrap;html=1;align=center;fontFamily=Helvetica;fontSize=11;fontColor=default;labelBackgroundColor=default;" parent="1" vertex="1">
          <mxGeometry x="244.5" y="1064.16" width="100" height="40" as="geometry" />
        </mxCell>
        <mxCell id="aFqaq0fVlDfXSGXktS_I-111" value="Hora" style="ellipse;whiteSpace=wrap;html=1;align=center;fontFamily=Helvetica;fontSize=11;fontColor=default;labelBackgroundColor=default;" parent="1" vertex="1">
          <mxGeometry x="495.5" y="1064.16" width="100" height="40" as="geometry" />
        </mxCell>
        <mxCell id="aFqaq0fVlDfXSGXktS_I-114" style="shape=connector;rounded=0;orthogonalLoop=1;jettySize=auto;html=1;exitX=0.5;exitY=0;exitDx=0;exitDy=0;strokeColor=default;align=center;verticalAlign=middle;fontFamily=Helvetica;fontSize=11;fontColor=default;labelBackgroundColor=default;endArrow=none;endFill=0;" parent="1" source="aFqaq0fVlDfXSGXktS_I-112" target="aFqaq0fVlDfXSGXktS_I-100" edge="1">
          <mxGeometry relative="1" as="geometry" />
        </mxCell>
        <mxCell id="aFqaq0fVlDfXSGXktS_I-112" value="Valor" style="ellipse;whiteSpace=wrap;html=1;align=center;fontFamily=Helvetica;fontSize=11;fontColor=default;labelBackgroundColor=default;" parent="1" vertex="1">
          <mxGeometry x="365.5" y="1064.16" width="100" height="40" as="geometry" />
        </mxCell>
        <mxCell id="aFqaq0fVlDfXSGXktS_I-113" style="shape=connector;rounded=0;orthogonalLoop=1;jettySize=auto;html=1;exitX=0.5;exitY=0;exitDx=0;exitDy=0;entryX=0.25;entryY=1;entryDx=0;entryDy=0;strokeColor=default;align=center;verticalAlign=middle;fontFamily=Helvetica;fontSize=11;fontColor=default;labelBackgroundColor=default;endArrow=none;endFill=0;" parent="1" source="aFqaq0fVlDfXSGXktS_I-110" target="aFqaq0fVlDfXSGXktS_I-100" edge="1">
          <mxGeometry relative="1" as="geometry" />
        </mxCell>
        <mxCell id="aFqaq0fVlDfXSGXktS_I-115" style="shape=connector;rounded=0;orthogonalLoop=1;jettySize=auto;html=1;exitX=0.5;exitY=0;exitDx=0;exitDy=0;strokeColor=default;align=center;verticalAlign=middle;fontFamily=Helvetica;fontSize=11;fontColor=default;labelBackgroundColor=default;endArrow=none;endFill=0;entryX=0.75;entryY=1;entryDx=0;entryDy=0;" parent="1" source="aFqaq0fVlDfXSGXktS_I-111" target="aFqaq0fVlDfXSGXktS_I-100" edge="1">
          <mxGeometry relative="1" as="geometry">
            <mxPoint x="506.5" y="979.16" as="targetPoint" />
          </mxGeometry>
        </mxCell>
        <mxCell id="aFqaq0fVlDfXSGXktS_I-117" value="" style="edgeStyle=orthogonalEdgeStyle;shape=connector;rounded=0;orthogonalLoop=1;jettySize=auto;html=1;strokeColor=default;align=center;verticalAlign=middle;fontFamily=Helvetica;fontSize=11;fontColor=default;labelBackgroundColor=default;endArrow=none;endFill=0;" parent="1" source="aFqaq0fVlDfXSGXktS_I-116" target="aFqaq0fVlDfXSGXktS_I-104" edge="1">
          <mxGeometry relative="1" as="geometry" />
        </mxCell>
        <mxCell id="aFqaq0fVlDfXSGXktS_I-116" value="Nome" style="ellipse;whiteSpace=wrap;html=1;align=center;fontFamily=Helvetica;fontSize=11;fontColor=default;labelBackgroundColor=default;" parent="1" vertex="1">
          <mxGeometry x="660" y="780" width="100" height="35" as="geometry" />
        </mxCell>
        <mxCell id="aFqaq0fVlDfXSGXktS_I-121" style="edgeStyle=orthogonalEdgeStyle;shape=connector;rounded=0;orthogonalLoop=1;jettySize=auto;html=1;exitX=0.5;exitY=1;exitDx=0;exitDy=0;entryX=0.5;entryY=0;entryDx=0;entryDy=0;strokeColor=default;align=center;verticalAlign=middle;fontFamily=Helvetica;fontSize=11;fontColor=default;labelBackgroundColor=default;endArrow=none;endFill=0;" parent="1" source="aFqaq0fVlDfXSGXktS_I-118" target="aFqaq0fVlDfXSGXktS_I-96" edge="1">
          <mxGeometry relative="1" as="geometry" />
        </mxCell>
        <mxCell id="aFqaq0fVlDfXSGXktS_I-118" value="Nome" style="ellipse;whiteSpace=wrap;html=1;align=center;fontFamily=Helvetica;fontSize=11;fontColor=default;labelBackgroundColor=default;" parent="1" vertex="1">
          <mxGeometry x="100" y="790" width="100" height="35" as="geometry" />
        </mxCell>
        <mxCell id="aFqaq0fVlDfXSGXktS_I-124" value="" style="edgeStyle=orthogonalEdgeStyle;shape=connector;rounded=0;orthogonalLoop=1;jettySize=auto;html=1;strokeColor=default;align=center;verticalAlign=middle;fontFamily=Helvetica;fontSize=11;fontColor=default;labelBackgroundColor=default;endArrow=none;endFill=0;" parent="1" source="aFqaq0fVlDfXSGXktS_I-123" target="aFqaq0fVlDfXSGXktS_I-96" edge="1">
          <mxGeometry relative="1" as="geometry" />
        </mxCell>
        <mxCell id="aFqaq0fVlDfXSGXktS_I-123" value="Especialidade" style="ellipse;whiteSpace=wrap;html=1;align=center;fontFamily=Helvetica;fontSize=11;fontColor=default;labelBackgroundColor=default;" parent="1" vertex="1">
          <mxGeometry x="100" y="955" width="100" height="40" as="geometry" />
        </mxCell>
      </root>
    </mxGraphModel>
  </diagram>
  <diagram id="sRF3oJGw8ufIdCaCbH6T" name="ex-2 cardinalidades">
    <mxGraphModel dx="1094" dy="757" grid="1" gridSize="10" guides="1" tooltips="1" connect="1" arrows="1" fold="1" page="1" pageScale="1" pageWidth="827" pageHeight="1169" math="0" shadow="0">
      <root>
        <mxCell id="0" />
        <mxCell id="1" parent="0" />
        <mxCell id="wfHrvElzDnYW0AU_tpqf-37" style="edgeStyle=orthogonalEdgeStyle;shape=connector;rounded=0;orthogonalLoop=1;jettySize=auto;html=1;exitX=0;exitY=1;exitDx=0;exitDy=0;entryX=0;entryY=0.5;entryDx=0;entryDy=0;strokeColor=default;align=center;verticalAlign=middle;fontFamily=Helvetica;fontSize=11;fontColor=default;labelBackgroundColor=default;endArrow=none;endFill=0;" edge="1" parent="1" source="wfHrvElzDnYW0AU_tpqf-38" target="wfHrvElzDnYW0AU_tpqf-48">
          <mxGeometry relative="1" as="geometry">
            <Array as="points">
              <mxPoint x="229" y="60" />
              <mxPoint x="229" y="210" />
            </Array>
          </mxGeometry>
        </mxCell>
        <mxCell id="wfHrvElzDnYW0AU_tpqf-38" value="Aviao" style="whiteSpace=wrap;html=1;align=center;fontFamily=Helvetica;fontSize=11;fontColor=default;labelBackgroundColor=default;" vertex="1" parent="1">
          <mxGeometry x="219" y="20" width="100" height="40" as="geometry" />
        </mxCell>
        <mxCell id="wfHrvElzDnYW0AU_tpqf-39" value="" style="edgeStyle=orthogonalEdgeStyle;shape=connector;rounded=0;orthogonalLoop=1;jettySize=auto;html=1;strokeColor=default;align=center;verticalAlign=middle;fontFamily=Helvetica;fontSize=11;fontColor=default;labelBackgroundColor=default;endArrow=none;endFill=0;startArrow=ERone;startFill=0;" edge="1" parent="1" source="wfHrvElzDnYW0AU_tpqf-38" target="wfHrvElzDnYW0AU_tpqf-40">
          <mxGeometry relative="1" as="geometry" />
        </mxCell>
        <mxCell id="wfHrvElzDnYW0AU_tpqf-40" value="Faz" style="shape=rhombus;perimeter=rhombusPerimeter;whiteSpace=wrap;html=1;align=center;fontFamily=Helvetica;fontSize=11;fontColor=default;labelBackgroundColor=default;" vertex="1" parent="1">
          <mxGeometry x="359" y="10" width="120" height="60" as="geometry" />
        </mxCell>
        <mxCell id="wfHrvElzDnYW0AU_tpqf-41" value="" style="edgeStyle=orthogonalEdgeStyle;shape=connector;rounded=0;orthogonalLoop=1;jettySize=auto;html=1;strokeColor=default;align=center;verticalAlign=middle;fontFamily=Helvetica;fontSize=11;fontColor=default;labelBackgroundColor=default;endArrow=none;endFill=0;startArrow=ERmany;startFill=0;" edge="1" parent="1" source="wfHrvElzDnYW0AU_tpqf-43" target="wfHrvElzDnYW0AU_tpqf-40">
          <mxGeometry relative="1" as="geometry" />
        </mxCell>
        <mxCell id="wfHrvElzDnYW0AU_tpqf-42" style="edgeStyle=orthogonalEdgeStyle;shape=connector;rounded=0;orthogonalLoop=1;jettySize=auto;html=1;exitX=1;exitY=1;exitDx=0;exitDy=0;entryX=1;entryY=0.5;entryDx=0;entryDy=0;strokeColor=default;align=center;verticalAlign=middle;fontFamily=Helvetica;fontSize=11;fontColor=default;labelBackgroundColor=default;endArrow=none;endFill=0;" edge="1" parent="1" source="wfHrvElzDnYW0AU_tpqf-43" target="wfHrvElzDnYW0AU_tpqf-49">
          <mxGeometry relative="1" as="geometry">
            <Array as="points">
              <mxPoint x="599" y="60" />
              <mxPoint x="599" y="110" />
            </Array>
          </mxGeometry>
        </mxCell>
        <mxCell id="wfHrvElzDnYW0AU_tpqf-43" value="Voo" style="whiteSpace=wrap;html=1;align=center;fontFamily=Helvetica;fontSize=11;fontColor=default;labelBackgroundColor=default;" vertex="1" parent="1">
          <mxGeometry x="509" y="20" width="100" height="40" as="geometry" />
        </mxCell>
        <mxCell id="wfHrvElzDnYW0AU_tpqf-44" style="edgeStyle=orthogonalEdgeStyle;shape=connector;rounded=0;orthogonalLoop=1;jettySize=auto;html=1;exitX=0;exitY=0.5;exitDx=0;exitDy=0;entryX=0;entryY=1;entryDx=0;entryDy=0;strokeColor=default;align=center;verticalAlign=middle;fontFamily=Helvetica;fontSize=11;fontColor=default;labelBackgroundColor=default;endArrow=none;endFill=0;" edge="1" parent="1" source="wfHrvElzDnYW0AU_tpqf-60" target="wfHrvElzDnYW0AU_tpqf-38">
          <mxGeometry relative="1" as="geometry">
            <Array as="points">
              <mxPoint x="229" y="110" />
              <mxPoint x="229" y="60" />
            </Array>
          </mxGeometry>
        </mxCell>
        <mxCell id="wfHrvElzDnYW0AU_tpqf-45" value="matricula" style="ellipse;whiteSpace=wrap;html=1;align=center;fontFamily=Helvetica;fontSize=11;fontColor=default;labelBackgroundColor=default;strokeColor=none;fillColor=none;" vertex="1" parent="1">
          <mxGeometry x="249" y="90" width="100" height="40" as="geometry" />
        </mxCell>
        <mxCell id="wfHrvElzDnYW0AU_tpqf-46" style="edgeStyle=orthogonalEdgeStyle;shape=connector;rounded=0;orthogonalLoop=1;jettySize=auto;html=1;exitX=0;exitY=0.5;exitDx=0;exitDy=0;entryX=0;entryY=1;entryDx=0;entryDy=0;strokeColor=default;align=center;verticalAlign=middle;fontFamily=Helvetica;fontSize=11;fontColor=default;labelBackgroundColor=default;endArrow=none;endFill=0;" edge="1" parent="1" source="wfHrvElzDnYW0AU_tpqf-47" target="wfHrvElzDnYW0AU_tpqf-38">
          <mxGeometry relative="1" as="geometry">
            <Array as="points">
              <mxPoint x="229" y="160" />
              <mxPoint x="229" y="60" />
            </Array>
          </mxGeometry>
        </mxCell>
        <mxCell id="wfHrvElzDnYW0AU_tpqf-47" value="marca" style="ellipse;whiteSpace=wrap;html=1;align=center;fontFamily=Helvetica;fontSize=11;fontColor=default;labelBackgroundColor=default;strokeColor=none;fillColor=none;" vertex="1" parent="1">
          <mxGeometry x="249" y="140" width="100" height="40" as="geometry" />
        </mxCell>
        <mxCell id="wfHrvElzDnYW0AU_tpqf-48" value="autonomia (em horas)" style="ellipse;whiteSpace=wrap;html=1;align=center;fontFamily=Helvetica;fontSize=11;fontColor=default;labelBackgroundColor=default;strokeColor=none;fillColor=none;" vertex="1" parent="1">
          <mxGeometry x="249" y="190" width="100" height="40" as="geometry" />
        </mxCell>
        <mxCell id="wfHrvElzDnYW0AU_tpqf-49" value="N. referencia" style="ellipse;whiteSpace=wrap;html=1;align=center;fontFamily=Helvetica;fontSize=11;fontColor=default;labelBackgroundColor=default;strokeColor=none;fillColor=none;" vertex="1" parent="1">
          <mxGeometry x="469" y="90" width="100" height="40" as="geometry" />
        </mxCell>
        <mxCell id="wfHrvElzDnYW0AU_tpqf-50" style="edgeStyle=orthogonalEdgeStyle;shape=connector;rounded=0;orthogonalLoop=1;jettySize=auto;html=1;exitX=1;exitY=0.5;exitDx=0;exitDy=0;entryX=1;entryY=1;entryDx=0;entryDy=0;strokeColor=default;align=center;verticalAlign=middle;fontFamily=Helvetica;fontSize=11;fontColor=default;labelBackgroundColor=default;endArrow=none;endFill=0;" edge="1" parent="1" source="wfHrvElzDnYW0AU_tpqf-51" target="wfHrvElzDnYW0AU_tpqf-43">
          <mxGeometry relative="1" as="geometry">
            <Array as="points">
              <mxPoint x="599" y="160" />
              <mxPoint x="599" y="60" />
            </Array>
          </mxGeometry>
        </mxCell>
        <mxCell id="wfHrvElzDnYW0AU_tpqf-51" value="data" style="ellipse;whiteSpace=wrap;html=1;align=center;fontFamily=Helvetica;fontSize=11;fontColor=default;labelBackgroundColor=default;strokeColor=none;fillColor=none;" vertex="1" parent="1">
          <mxGeometry x="469" y="140" width="100" height="40" as="geometry" />
        </mxCell>
        <mxCell id="wfHrvElzDnYW0AU_tpqf-52" style="edgeStyle=orthogonalEdgeStyle;shape=connector;rounded=0;orthogonalLoop=1;jettySize=auto;html=1;exitX=1;exitY=0.5;exitDx=0;exitDy=0;entryX=1;entryY=1;entryDx=0;entryDy=0;strokeColor=default;align=center;verticalAlign=middle;fontFamily=Helvetica;fontSize=11;fontColor=default;labelBackgroundColor=default;endArrow=none;endFill=0;" edge="1" parent="1" source="wfHrvElzDnYW0AU_tpqf-53" target="wfHrvElzDnYW0AU_tpqf-43">
          <mxGeometry relative="1" as="geometry">
            <Array as="points">
              <mxPoint x="599" y="210" />
              <mxPoint x="599" y="60" />
            </Array>
          </mxGeometry>
        </mxCell>
        <mxCell id="wfHrvElzDnYW0AU_tpqf-53" value="hora" style="ellipse;whiteSpace=wrap;html=1;align=center;fontFamily=Helvetica;fontSize=11;fontColor=default;labelBackgroundColor=default;strokeColor=none;fillColor=none;" vertex="1" parent="1">
          <mxGeometry x="469" y="190" width="100" height="40" as="geometry" />
        </mxCell>
        <mxCell id="wfHrvElzDnYW0AU_tpqf-54" value="" style="ellipse;whiteSpace=wrap;html=1;aspect=fixed;fontFamily=Helvetica;fontSize=11;fontColor=default;labelBackgroundColor=default;" vertex="1" parent="1">
          <mxGeometry x="239" y="150" width="20" height="20" as="geometry" />
        </mxCell>
        <mxCell id="wfHrvElzDnYW0AU_tpqf-55" value="" style="ellipse;whiteSpace=wrap;html=1;aspect=fixed;fontFamily=Helvetica;fontSize=11;fontColor=default;labelBackgroundColor=default;" vertex="1" parent="1">
          <mxGeometry x="239" y="200" width="20" height="20" as="geometry" />
        </mxCell>
        <mxCell id="wfHrvElzDnYW0AU_tpqf-56" value="" style="ellipse;whiteSpace=wrap;html=1;aspect=fixed;fontFamily=Helvetica;fontSize=11;fontColor=default;labelBackgroundColor=default;" vertex="1" parent="1">
          <mxGeometry x="569" y="100" width="20" height="20" as="geometry" />
        </mxCell>
        <mxCell id="wfHrvElzDnYW0AU_tpqf-57" value="" style="ellipse;whiteSpace=wrap;html=1;aspect=fixed;fontFamily=Helvetica;fontSize=11;fontColor=default;labelBackgroundColor=default;" vertex="1" parent="1">
          <mxGeometry x="569" y="150" width="20" height="20" as="geometry" />
        </mxCell>
        <mxCell id="wfHrvElzDnYW0AU_tpqf-58" value="" style="ellipse;whiteSpace=wrap;html=1;aspect=fixed;fontFamily=Helvetica;fontSize=11;fontColor=default;labelBackgroundColor=default;" vertex="1" parent="1">
          <mxGeometry x="569" y="200" width="20" height="20" as="geometry" />
        </mxCell>
        <mxCell id="wfHrvElzDnYW0AU_tpqf-59" value="" style="edgeStyle=orthogonalEdgeStyle;shape=connector;rounded=0;orthogonalLoop=1;jettySize=auto;html=1;exitX=0;exitY=0.5;exitDx=0;exitDy=0;entryX=0;entryY=1;entryDx=0;entryDy=0;strokeColor=default;align=center;verticalAlign=middle;fontFamily=Helvetica;fontSize=11;fontColor=default;labelBackgroundColor=default;endArrow=none;endFill=0;" edge="1" parent="1" source="wfHrvElzDnYW0AU_tpqf-45" target="wfHrvElzDnYW0AU_tpqf-60">
          <mxGeometry relative="1" as="geometry">
            <mxPoint x="249" y="110" as="sourcePoint" />
            <mxPoint x="219" y="60" as="targetPoint" />
          </mxGeometry>
        </mxCell>
        <mxCell id="wfHrvElzDnYW0AU_tpqf-60" value="" style="ellipse;whiteSpace=wrap;html=1;aspect=fixed;fontFamily=Helvetica;fontSize=11;fontColor=default;labelBackgroundColor=default;" vertex="1" parent="1">
          <mxGeometry x="239" y="100" width="20" height="20" as="geometry" />
        </mxCell>
        <mxCell id="wfHrvElzDnYW0AU_tpqf-93" style="shape=connector;rounded=0;orthogonalLoop=1;jettySize=auto;html=1;exitX=0.25;exitY=1;exitDx=0;exitDy=0;entryX=0.5;entryY=0;entryDx=0;entryDy=0;strokeColor=default;align=center;verticalAlign=middle;fontFamily=Helvetica;fontSize=11;fontColor=default;labelBackgroundColor=default;endArrow=none;endFill=0;" edge="1" parent="1" source="wfHrvElzDnYW0AU_tpqf-61" target="wfHrvElzDnYW0AU_tpqf-92">
          <mxGeometry relative="1" as="geometry" />
        </mxCell>
        <mxCell id="wfHrvElzDnYW0AU_tpqf-100" style="shape=connector;rounded=0;orthogonalLoop=1;jettySize=auto;html=1;strokeColor=default;align=center;verticalAlign=middle;fontFamily=Helvetica;fontSize=11;fontColor=default;labelBackgroundColor=default;endArrow=none;endFill=0;startArrow=ERmany;startFill=0;exitX=0.75;exitY=0;exitDx=0;exitDy=0;" edge="1" parent="1" source="wfHrvElzDnYW0AU_tpqf-61" target="wfHrvElzDnYW0AU_tpqf-98">
          <mxGeometry relative="1" as="geometry">
            <mxPoint x="164" y="460" as="sourcePoint" />
          </mxGeometry>
        </mxCell>
        <mxCell id="wfHrvElzDnYW0AU_tpqf-61" value="Medico" style="whiteSpace=wrap;html=1;align=center;fontFamily=Helvetica;fontSize=11;fontColor=default;labelBackgroundColor=default;" vertex="1" parent="1">
          <mxGeometry x="82" y="480" width="100" height="40" as="geometry" />
        </mxCell>
        <mxCell id="wfHrvElzDnYW0AU_tpqf-62" value="" style="shape=connector;rounded=0;orthogonalLoop=1;jettySize=auto;html=1;strokeColor=default;align=center;verticalAlign=middle;fontFamily=Helvetica;fontSize=11;fontColor=default;labelBackgroundColor=default;endArrow=ERone;endFill=0;" edge="1" parent="1" source="wfHrvElzDnYW0AU_tpqf-63" target="wfHrvElzDnYW0AU_tpqf-61">
          <mxGeometry relative="1" as="geometry" />
        </mxCell>
        <mxCell id="wfHrvElzDnYW0AU_tpqf-63" value="Tem" style="shape=rhombus;perimeter=rhombusPerimeter;whiteSpace=wrap;html=1;align=center;fontFamily=Helvetica;fontSize=11;fontColor=default;labelBackgroundColor=default;" vertex="1" parent="1">
          <mxGeometry x="202" y="470" width="120" height="60" as="geometry" />
        </mxCell>
        <mxCell id="wfHrvElzDnYW0AU_tpqf-64" value="" style="shape=connector;rounded=0;orthogonalLoop=1;jettySize=auto;html=1;strokeColor=default;align=center;verticalAlign=middle;fontFamily=Helvetica;fontSize=11;fontColor=default;labelBackgroundColor=default;endArrow=ERmany;endFill=0;exitX=1;exitY=0.5;exitDx=0;exitDy=0;" edge="1" parent="1" source="wfHrvElzDnYW0AU_tpqf-63" target="wfHrvElzDnYW0AU_tpqf-65">
          <mxGeometry relative="1" as="geometry">
            <mxPoint x="299.5" y="603.16" as="sourcePoint" />
          </mxGeometry>
        </mxCell>
        <mxCell id="wfHrvElzDnYW0AU_tpqf-65" value="Consulta" style="whiteSpace=wrap;html=1;align=center;fontFamily=Helvetica;fontSize=11;fontColor=default;labelBackgroundColor=default;" vertex="1" parent="1">
          <mxGeometry x="352" y="480" width="100" height="40" as="geometry" />
        </mxCell>
        <mxCell id="wfHrvElzDnYW0AU_tpqf-66" value="" style="shape=connector;rounded=0;orthogonalLoop=1;jettySize=auto;html=1;strokeColor=default;align=center;verticalAlign=middle;fontFamily=Helvetica;fontSize=11;fontColor=default;labelBackgroundColor=default;endArrow=ERmany;endFill=0;exitX=0;exitY=0.5;exitDx=0;exitDy=0;" edge="1" parent="1" source="wfHrvElzDnYW0AU_tpqf-67" target="wfHrvElzDnYW0AU_tpqf-65">
          <mxGeometry relative="1" as="geometry">
            <mxPoint x="518.1867469879517" y="590.0033734939758" as="sourcePoint" />
          </mxGeometry>
        </mxCell>
        <mxCell id="wfHrvElzDnYW0AU_tpqf-67" value="Para" style="shape=rhombus;perimeter=rhombusPerimeter;whiteSpace=wrap;html=1;align=center;fontFamily=Helvetica;fontSize=11;fontColor=default;labelBackgroundColor=default;" vertex="1" parent="1">
          <mxGeometry x="492" y="470" width="120" height="60" as="geometry" />
        </mxCell>
        <mxCell id="wfHrvElzDnYW0AU_tpqf-68" value="" style="shape=connector;rounded=0;orthogonalLoop=1;jettySize=auto;html=1;strokeColor=default;align=center;verticalAlign=middle;fontFamily=Helvetica;fontSize=11;fontColor=default;labelBackgroundColor=default;endArrow=ERone;endFill=0;" edge="1" parent="1" source="wfHrvElzDnYW0AU_tpqf-67" target="wfHrvElzDnYW0AU_tpqf-69">
          <mxGeometry relative="1" as="geometry" />
        </mxCell>
        <mxCell id="wfHrvElzDnYW0AU_tpqf-69" value="Paciente" style="whiteSpace=wrap;html=1;align=center;fontFamily=Helvetica;fontSize=11;fontColor=default;labelBackgroundColor=default;" vertex="1" parent="1">
          <mxGeometry x="642" y="480" width="100" height="40" as="geometry" />
        </mxCell>
        <mxCell id="wfHrvElzDnYW0AU_tpqf-70" value="Data" style="ellipse;whiteSpace=wrap;html=1;align=center;fontFamily=Helvetica;fontSize=11;fontColor=default;labelBackgroundColor=default;" vertex="1" parent="1">
          <mxGeometry x="242" y="580.0000000000001" width="100" height="40" as="geometry" />
        </mxCell>
        <mxCell id="wfHrvElzDnYW0AU_tpqf-71" value="Hora" style="ellipse;whiteSpace=wrap;html=1;align=center;fontFamily=Helvetica;fontSize=11;fontColor=default;labelBackgroundColor=default;" vertex="1" parent="1">
          <mxGeometry x="472" y="580.0000000000001" width="100" height="40" as="geometry" />
        </mxCell>
        <mxCell id="wfHrvElzDnYW0AU_tpqf-72" style="shape=connector;rounded=0;orthogonalLoop=1;jettySize=auto;html=1;exitX=0.5;exitY=0;exitDx=0;exitDy=0;strokeColor=default;align=center;verticalAlign=middle;fontFamily=Helvetica;fontSize=11;fontColor=default;labelBackgroundColor=default;endArrow=none;endFill=0;" edge="1" parent="1" source="wfHrvElzDnYW0AU_tpqf-73" target="wfHrvElzDnYW0AU_tpqf-65">
          <mxGeometry relative="1" as="geometry" />
        </mxCell>
        <mxCell id="wfHrvElzDnYW0AU_tpqf-73" value="Valor" style="ellipse;whiteSpace=wrap;html=1;align=center;fontFamily=Helvetica;fontSize=11;fontColor=default;labelBackgroundColor=default;" vertex="1" parent="1">
          <mxGeometry x="352" y="620.0000000000001" width="100" height="40" as="geometry" />
        </mxCell>
        <mxCell id="wfHrvElzDnYW0AU_tpqf-74" style="shape=connector;rounded=0;orthogonalLoop=1;jettySize=auto;html=1;exitX=0.5;exitY=0;exitDx=0;exitDy=0;entryX=0.25;entryY=1;entryDx=0;entryDy=0;strokeColor=default;align=center;verticalAlign=middle;fontFamily=Helvetica;fontSize=11;fontColor=default;labelBackgroundColor=default;endArrow=none;endFill=0;" edge="1" parent="1" source="wfHrvElzDnYW0AU_tpqf-70" target="wfHrvElzDnYW0AU_tpqf-65">
          <mxGeometry relative="1" as="geometry" />
        </mxCell>
        <mxCell id="wfHrvElzDnYW0AU_tpqf-75" style="shape=connector;rounded=0;orthogonalLoop=1;jettySize=auto;html=1;exitX=0.5;exitY=0;exitDx=0;exitDy=0;strokeColor=default;align=center;verticalAlign=middle;fontFamily=Helvetica;fontSize=11;fontColor=default;labelBackgroundColor=default;endArrow=none;endFill=0;entryX=0.75;entryY=1;entryDx=0;entryDy=0;" edge="1" parent="1" source="wfHrvElzDnYW0AU_tpqf-71" target="wfHrvElzDnYW0AU_tpqf-65">
          <mxGeometry relative="1" as="geometry">
            <mxPoint x="488.5" y="589.16" as="targetPoint" />
          </mxGeometry>
        </mxCell>
        <mxCell id="wfHrvElzDnYW0AU_tpqf-76" value="" style="shape=connector;rounded=0;orthogonalLoop=1;jettySize=auto;html=1;strokeColor=default;align=center;verticalAlign=middle;fontFamily=Helvetica;fontSize=11;fontColor=default;labelBackgroundColor=default;endArrow=none;endFill=0;" edge="1" parent="1" source="wfHrvElzDnYW0AU_tpqf-77" target="wfHrvElzDnYW0AU_tpqf-69">
          <mxGeometry relative="1" as="geometry" />
        </mxCell>
        <mxCell id="wfHrvElzDnYW0AU_tpqf-77" value="Nome" style="ellipse;whiteSpace=wrap;html=1;align=center;fontFamily=Helvetica;fontSize=11;fontColor=default;labelBackgroundColor=default;" vertex="1" parent="1">
          <mxGeometry x="590" y="400" width="100" height="35" as="geometry" />
        </mxCell>
        <mxCell id="wfHrvElzDnYW0AU_tpqf-78" style="shape=connector;rounded=0;orthogonalLoop=1;jettySize=auto;html=1;exitX=0.5;exitY=1;exitDx=0;exitDy=0;entryX=0.5;entryY=0;entryDx=0;entryDy=0;strokeColor=default;align=center;verticalAlign=middle;fontFamily=Helvetica;fontSize=11;fontColor=default;labelBackgroundColor=default;endArrow=none;endFill=0;" edge="1" parent="1" source="wfHrvElzDnYW0AU_tpqf-79" target="wfHrvElzDnYW0AU_tpqf-61">
          <mxGeometry relative="1" as="geometry" />
        </mxCell>
        <mxCell id="wfHrvElzDnYW0AU_tpqf-79" value="Nome" style="ellipse;whiteSpace=wrap;html=1;align=center;fontFamily=Helvetica;fontSize=11;fontColor=default;labelBackgroundColor=default;" vertex="1" parent="1">
          <mxGeometry x="64" y="330" width="100" height="35" as="geometry" />
        </mxCell>
        <mxCell id="wfHrvElzDnYW0AU_tpqf-88" style="rounded=0;orthogonalLoop=1;jettySize=auto;html=1;exitX=0.5;exitY=1;exitDx=0;exitDy=0;endArrow=none;endFill=0;" edge="1" parent="1" source="wfHrvElzDnYW0AU_tpqf-84" target="wfHrvElzDnYW0AU_tpqf-69">
          <mxGeometry relative="1" as="geometry" />
        </mxCell>
        <mxCell id="wfHrvElzDnYW0AU_tpqf-84" value="Tipo de Sangue" style="ellipse;whiteSpace=wrap;html=1;align=center;fontFamily=Helvetica;fontSize=11;fontColor=default;labelBackgroundColor=default;" vertex="1" parent="1">
          <mxGeometry x="700" y="400" width="100" height="35" as="geometry" />
        </mxCell>
        <mxCell id="wfHrvElzDnYW0AU_tpqf-87" style="edgeStyle=orthogonalEdgeStyle;rounded=0;orthogonalLoop=1;jettySize=auto;html=1;exitX=0.5;exitY=0;exitDx=0;exitDy=0;entryX=0.5;entryY=1;entryDx=0;entryDy=0;endArrow=none;endFill=0;" edge="1" parent="1" source="wfHrvElzDnYW0AU_tpqf-85" target="wfHrvElzDnYW0AU_tpqf-69">
          <mxGeometry relative="1" as="geometry" />
        </mxCell>
        <mxCell id="wfHrvElzDnYW0AU_tpqf-85" value="Idade" style="ellipse;whiteSpace=wrap;html=1;align=center;fontFamily=Helvetica;fontSize=11;fontColor=default;labelBackgroundColor=default;" vertex="1" parent="1">
          <mxGeometry x="642" y="567.5" width="100" height="35" as="geometry" />
        </mxCell>
        <mxCell id="wfHrvElzDnYW0AU_tpqf-91" style="shape=connector;rounded=0;orthogonalLoop=1;jettySize=auto;html=1;exitX=0.5;exitY=1;exitDx=0;exitDy=0;entryX=0.25;entryY=0;entryDx=0;entryDy=0;strokeColor=default;align=center;verticalAlign=middle;fontFamily=Helvetica;fontSize=11;fontColor=default;labelBackgroundColor=default;endArrow=none;endFill=0;" edge="1" parent="1" source="wfHrvElzDnYW0AU_tpqf-90" target="wfHrvElzDnYW0AU_tpqf-61">
          <mxGeometry relative="1" as="geometry" />
        </mxCell>
        <mxCell id="wfHrvElzDnYW0AU_tpqf-90" value="Cedula" style="ellipse;whiteSpace=wrap;html=1;align=center;fontFamily=Helvetica;fontSize=11;fontColor=default;labelBackgroundColor=default;" vertex="1" parent="1">
          <mxGeometry x="4" y="410" width="100" height="40" as="geometry" />
        </mxCell>
        <mxCell id="wfHrvElzDnYW0AU_tpqf-92" value="Morada" style="ellipse;whiteSpace=wrap;html=1;align=center;fontFamily=Helvetica;fontSize=11;fontColor=default;labelBackgroundColor=default;" vertex="1" parent="1">
          <mxGeometry x="4" y="567.5" width="100" height="40" as="geometry" />
        </mxCell>
        <mxCell id="wfHrvElzDnYW0AU_tpqf-94" value="Especialidade" style="whiteSpace=wrap;html=1;align=center;fontFamily=Helvetica;fontSize=11;fontColor=default;labelBackgroundColor=default;" vertex="1" parent="1">
          <mxGeometry x="353" y="260" width="100" height="40" as="geometry" />
        </mxCell>
        <mxCell id="wfHrvElzDnYW0AU_tpqf-101" style="shape=connector;rounded=0;orthogonalLoop=1;jettySize=auto;html=1;entryX=0;entryY=0.5;entryDx=0;entryDy=0;strokeColor=default;align=center;verticalAlign=middle;fontFamily=Helvetica;fontSize=11;fontColor=default;labelBackgroundColor=default;endArrow=ERone;endFill=0;" edge="1" parent="1" source="wfHrvElzDnYW0AU_tpqf-98" target="wfHrvElzDnYW0AU_tpqf-94">
          <mxGeometry relative="1" as="geometry" />
        </mxCell>
        <mxCell id="wfHrvElzDnYW0AU_tpqf-98" value="Tem" style="shape=rhombus;perimeter=rhombusPerimeter;whiteSpace=wrap;html=1;align=center;fontFamily=Helvetica;fontSize=11;fontColor=default;labelBackgroundColor=default;" vertex="1" parent="1">
          <mxGeometry x="189" y="330" width="120" height="60" as="geometry" />
        </mxCell>
        <mxCell id="wfHrvElzDnYW0AU_tpqf-99" value="É" style="shape=rhombus;perimeter=rhombusPerimeter;whiteSpace=wrap;html=1;align=center;fontFamily=Helvetica;fontSize=11;fontColor=default;labelBackgroundColor=default;" vertex="1" parent="1">
          <mxGeometry x="343" y="365" width="120" height="60" as="geometry" />
        </mxCell>
        <mxCell id="wfHrvElzDnYW0AU_tpqf-102" style="shape=connector;rounded=0;orthogonalLoop=1;jettySize=auto;html=1;exitX=0.5;exitY=1;exitDx=0;exitDy=0;entryX=0.5;entryY=0;entryDx=0;entryDy=0;strokeColor=default;align=center;verticalAlign=middle;fontFamily=Helvetica;fontSize=11;fontColor=default;labelBackgroundColor=default;endArrow=ERmany;endFill=0;" edge="1" parent="1" source="wfHrvElzDnYW0AU_tpqf-99" target="wfHrvElzDnYW0AU_tpqf-65">
          <mxGeometry relative="1" as="geometry" />
        </mxCell>
        <mxCell id="wfHrvElzDnYW0AU_tpqf-103" style="shape=connector;rounded=0;orthogonalLoop=1;jettySize=auto;html=1;exitX=0.5;exitY=1;exitDx=0;exitDy=0;entryX=0.5;entryY=0;entryDx=0;entryDy=0;strokeColor=default;align=center;verticalAlign=middle;fontFamily=Helvetica;fontSize=11;fontColor=default;labelBackgroundColor=default;endArrow=none;endFill=0;startArrow=ERone;startFill=0;" edge="1" parent="1" source="wfHrvElzDnYW0AU_tpqf-94" target="wfHrvElzDnYW0AU_tpqf-99">
          <mxGeometry relative="1" as="geometry" />
        </mxCell>
        <mxCell id="wfHrvElzDnYW0AU_tpqf-105" value="Clientes" style="whiteSpace=wrap;html=1;align=center;fontFamily=Helvetica;fontSize=11;fontColor=default;labelBackgroundColor=default;" vertex="1" parent="1">
          <mxGeometry x="119" y="930" width="100" height="40" as="geometry" />
        </mxCell>
        <mxCell id="wfHrvElzDnYW0AU_tpqf-106" value="Reservas" style="whiteSpace=wrap;html=1;align=center;fontFamily=Helvetica;fontSize=11;fontColor=default;labelBackgroundColor=default;" vertex="1" parent="1">
          <mxGeometry x="369" y="800" width="100" height="40" as="geometry" />
        </mxCell>
        <mxCell id="wfHrvElzDnYW0AU_tpqf-107" value="Quartos" style="whiteSpace=wrap;html=1;align=center;fontFamily=Helvetica;fontSize=11;fontColor=default;labelBackgroundColor=default;" vertex="1" parent="1">
          <mxGeometry x="612" y="930" width="100" height="40" as="geometry" />
        </mxCell>
        <mxCell id="wfHrvElzDnYW0AU_tpqf-115" style="shape=connector;rounded=0;orthogonalLoop=1;jettySize=auto;html=1;strokeColor=default;align=center;verticalAlign=middle;fontFamily=Helvetica;fontSize=11;fontColor=default;labelBackgroundColor=default;endArrow=none;endFill=0;" edge="1" parent="1" source="wfHrvElzDnYW0AU_tpqf-108" target="wfHrvElzDnYW0AU_tpqf-105">
          <mxGeometry relative="1" as="geometry" />
        </mxCell>
        <mxCell id="wfHrvElzDnYW0AU_tpqf-108" value="Nome" style="ellipse;whiteSpace=wrap;html=1;align=center;fontFamily=Helvetica;fontSize=11;fontColor=default;labelBackgroundColor=default;" vertex="1" parent="1">
          <mxGeometry y="1000" width="100" height="40" as="geometry" />
        </mxCell>
        <mxCell id="wfHrvElzDnYW0AU_tpqf-116" style="shape=connector;rounded=0;orthogonalLoop=1;jettySize=auto;html=1;strokeColor=default;align=center;verticalAlign=middle;fontFamily=Helvetica;fontSize=11;fontColor=default;labelBackgroundColor=default;endArrow=none;endFill=0;" edge="1" parent="1" source="wfHrvElzDnYW0AU_tpqf-109" target="wfHrvElzDnYW0AU_tpqf-105">
          <mxGeometry relative="1" as="geometry" />
        </mxCell>
        <mxCell id="wfHrvElzDnYW0AU_tpqf-109" value="NIF&lt;span style=&quot;color: rgba(0, 0, 0, 0); font-family: monospace; font-size: 0px; text-align: start; text-wrap-mode: nowrap; background-color: rgb(251, 251, 251);&quot;&gt;%3CmxGraphModel%3E%3Croot%3E%3CmxCell%20id%3D%220%22%2F%3E%3CmxCell%20id%3D%221%22%20parent%3D%220%22%2F%3E%3CmxCell%20id%3D%222%22%20value%3D%22Nome%22%20style%3D%22ellipse%3BwhiteSpace%3Dwrap%3Bhtml%3D1%3Balign%3Dcenter%3BfontFamily%3DHelvetica%3BfontSize%3D11%3BfontColor%3Ddefault%3BlabelBackgroundColor%3Ddefault%3B%22%20vertex%3D%221%22%20parent%3D%221%22%3E%3CmxGeometry%20x%3D%2230%22%20y%3D%22830%22%20width%3D%22100%22%20height%3D%2240%22%20as%3D%22geometry%22%2F%3E%3C%2FmxCell%3E%3C%2Froot%3E%3C%2FmxGraphModel%3E&lt;/span&gt;" style="ellipse;whiteSpace=wrap;html=1;align=center;fontFamily=Helvetica;fontSize=11;fontColor=default;labelBackgroundColor=default;" vertex="1" parent="1">
          <mxGeometry x="119" y="1000" width="100" height="40" as="geometry" />
        </mxCell>
        <mxCell id="wfHrvElzDnYW0AU_tpqf-117" style="shape=connector;rounded=0;orthogonalLoop=1;jettySize=auto;html=1;strokeColor=default;align=center;verticalAlign=middle;fontFamily=Helvetica;fontSize=11;fontColor=default;labelBackgroundColor=default;endArrow=none;endFill=0;" edge="1" parent="1" source="wfHrvElzDnYW0AU_tpqf-110" target="wfHrvElzDnYW0AU_tpqf-105">
          <mxGeometry relative="1" as="geometry" />
        </mxCell>
        <mxCell id="wfHrvElzDnYW0AU_tpqf-110" value="Nacionalidade" style="ellipse;whiteSpace=wrap;html=1;align=center;fontFamily=Helvetica;fontSize=11;fontColor=default;labelBackgroundColor=default;" vertex="1" parent="1">
          <mxGeometry x="242" y="1000" width="100" height="40" as="geometry" />
        </mxCell>
        <mxCell id="wfHrvElzDnYW0AU_tpqf-121" style="shape=connector;rounded=0;orthogonalLoop=1;jettySize=auto;html=1;strokeColor=default;align=center;verticalAlign=middle;fontFamily=Helvetica;fontSize=11;fontColor=default;labelBackgroundColor=default;endArrow=none;endFill=0;" edge="1" parent="1" source="wfHrvElzDnYW0AU_tpqf-111" target="wfHrvElzDnYW0AU_tpqf-107">
          <mxGeometry relative="1" as="geometry" />
        </mxCell>
        <mxCell id="wfHrvElzDnYW0AU_tpqf-111" value="Numero" style="ellipse;whiteSpace=wrap;html=1;align=center;fontFamily=Helvetica;fontSize=11;fontColor=default;labelBackgroundColor=default;" vertex="1" parent="1">
          <mxGeometry x="680" y="1000" width="100" height="40" as="geometry" />
        </mxCell>
        <mxCell id="wfHrvElzDnYW0AU_tpqf-122" style="shape=connector;rounded=0;orthogonalLoop=1;jettySize=auto;html=1;exitX=0;exitY=0.5;exitDx=0;exitDy=0;strokeColor=default;align=center;verticalAlign=middle;fontFamily=Helvetica;fontSize=11;fontColor=default;labelBackgroundColor=default;endArrow=none;endFill=0;" edge="1" parent="1" source="wfHrvElzDnYW0AU_tpqf-112" target="wfHrvElzDnYW0AU_tpqf-107">
          <mxGeometry relative="1" as="geometry" />
        </mxCell>
        <mxCell id="wfHrvElzDnYW0AU_tpqf-112" value="Nª Camas" style="ellipse;whiteSpace=wrap;html=1;align=center;fontFamily=Helvetica;fontSize=11;fontColor=default;labelBackgroundColor=default;" vertex="1" parent="1">
          <mxGeometry x="540" y="1000" width="100" height="40" as="geometry" />
        </mxCell>
        <mxCell id="wfHrvElzDnYW0AU_tpqf-118" style="shape=connector;rounded=0;orthogonalLoop=1;jettySize=auto;html=1;exitX=0.5;exitY=1;exitDx=0;exitDy=0;strokeColor=default;align=center;verticalAlign=middle;fontFamily=Helvetica;fontSize=11;fontColor=default;labelBackgroundColor=default;endArrow=none;endFill=0;" edge="1" parent="1" source="wfHrvElzDnYW0AU_tpqf-113" target="wfHrvElzDnYW0AU_tpqf-106">
          <mxGeometry relative="1" as="geometry" />
        </mxCell>
        <mxCell id="wfHrvElzDnYW0AU_tpqf-113" value="Data" style="ellipse;whiteSpace=wrap;html=1;align=center;fontFamily=Helvetica;fontSize=11;fontColor=default;labelBackgroundColor=default;" vertex="1" parent="1">
          <mxGeometry x="300" y="740" width="100" height="40" as="geometry" />
        </mxCell>
        <mxCell id="wfHrvElzDnYW0AU_tpqf-119" style="shape=connector;rounded=0;orthogonalLoop=1;jettySize=auto;html=1;exitX=0.5;exitY=1;exitDx=0;exitDy=0;strokeColor=default;align=center;verticalAlign=middle;fontFamily=Helvetica;fontSize=11;fontColor=default;labelBackgroundColor=default;endArrow=none;endFill=0;" edge="1" parent="1" source="wfHrvElzDnYW0AU_tpqf-114" target="wfHrvElzDnYW0AU_tpqf-106">
          <mxGeometry relative="1" as="geometry" />
        </mxCell>
        <mxCell id="wfHrvElzDnYW0AU_tpqf-114" value="Nª Noites" style="ellipse;whiteSpace=wrap;html=1;align=center;fontFamily=Helvetica;fontSize=11;fontColor=default;labelBackgroundColor=default;" vertex="1" parent="1">
          <mxGeometry x="440" y="740" width="100" height="40" as="geometry" />
        </mxCell>
        <mxCell id="wfHrvElzDnYW0AU_tpqf-125" style="shape=connector;rounded=0;orthogonalLoop=1;jettySize=auto;html=1;exitX=0;exitY=1;exitDx=0;exitDy=0;strokeColor=default;align=center;verticalAlign=middle;fontFamily=Helvetica;fontSize=11;fontColor=default;labelBackgroundColor=default;endArrow=ERone;endFill=0;endSize=12;startSize=12;" edge="1" parent="1" source="wfHrvElzDnYW0AU_tpqf-123" target="wfHrvElzDnYW0AU_tpqf-105">
          <mxGeometry relative="1" as="geometry" />
        </mxCell>
        <mxCell id="wfHrvElzDnYW0AU_tpqf-126" style="shape=connector;rounded=0;orthogonalLoop=1;jettySize=auto;html=1;exitX=1;exitY=0;exitDx=0;exitDy=0;strokeColor=default;align=center;verticalAlign=middle;fontFamily=Helvetica;fontSize=11;fontColor=default;labelBackgroundColor=default;endArrow=ERmany;endFill=0;endSize=12;startSize=12;" edge="1" parent="1" source="wfHrvElzDnYW0AU_tpqf-123" target="wfHrvElzDnYW0AU_tpqf-106">
          <mxGeometry relative="1" as="geometry" />
        </mxCell>
        <mxCell id="wfHrvElzDnYW0AU_tpqf-123" value="Para" style="shape=rhombus;perimeter=rhombusPerimeter;whiteSpace=wrap;html=1;align=center;fontFamily=Helvetica;fontSize=11;fontColor=default;labelBackgroundColor=default;" vertex="1" parent="1">
          <mxGeometry x="229" y="860" width="120" height="60" as="geometry" />
        </mxCell>
        <mxCell id="wfHrvElzDnYW0AU_tpqf-127" style="shape=connector;rounded=0;orthogonalLoop=1;jettySize=auto;html=1;exitX=0;exitY=0;exitDx=0;exitDy=0;strokeColor=default;align=center;verticalAlign=middle;fontFamily=Helvetica;fontSize=11;fontColor=default;labelBackgroundColor=default;endArrow=ERmany;endFill=0;endSize=12;startSize=12;" edge="1" parent="1" source="wfHrvElzDnYW0AU_tpqf-124" target="wfHrvElzDnYW0AU_tpqf-106">
          <mxGeometry relative="1" as="geometry" />
        </mxCell>
        <mxCell id="wfHrvElzDnYW0AU_tpqf-128" style="shape=connector;rounded=0;orthogonalLoop=1;jettySize=auto;html=1;exitX=1;exitY=1;exitDx=0;exitDy=0;strokeColor=default;align=center;verticalAlign=middle;fontFamily=Helvetica;fontSize=11;fontColor=default;labelBackgroundColor=default;endArrow=ERmany;endFill=0;endSize=12;startSize=12;" edge="1" parent="1" source="wfHrvElzDnYW0AU_tpqf-124" target="wfHrvElzDnYW0AU_tpqf-107">
          <mxGeometry relative="1" as="geometry" />
        </mxCell>
        <mxCell id="wfHrvElzDnYW0AU_tpqf-124" value="Para" style="shape=rhombus;perimeter=rhombusPerimeter;whiteSpace=wrap;html=1;align=center;fontFamily=Helvetica;fontSize=11;fontColor=default;labelBackgroundColor=default;" vertex="1" parent="1">
          <mxGeometry x="489" y="860" width="120" height="60" as="geometry" />
        </mxCell>
      </root>
    </mxGraphModel>
  </diagram>
</mxfile>
